<?xml version="1.0" encoding="UTF-8" standalone="no"?>
<!-- Created with Inkscape (http://www.inkscape.org/) -->

<svg
   width="1024"
   height="1024"
   viewBox="0 0 1024 1024"
   version="1.1"
   id="SVGRoot"
   sodipodi:docname="icon-h.svg"
   inkscape:version="1.2.2 (b0a8486541, 2022-12-01)"
   inkscape:export-filename="icon-h.png"
   inkscape:export-xdpi="96"
   inkscape:export-ydpi="96"
   xmlns:inkscape="http://www.inkscape.org/namespaces/inkscape"
   xmlns:sodipodi="http://sodipodi.sourceforge.net/DTD/sodipodi-0.dtd"
   xmlns="http://www.w3.org/2000/svg"
   xmlns:svg="http://www.w3.org/2000/svg">
  <sodipodi:namedview
     id="namedview7"
     pagecolor="#ffffff"
     bordercolor="#999999"
     borderopacity="1"
     inkscape:showpageshadow="0"
     inkscape:pageopacity="0"
     inkscape:pagecheckerboard="0"
     inkscape:deskcolor="#d1d1d1"
     showgrid="false"
     inkscape:zoom="0.60308522"
     inkscape:cx="417.85139"
     inkscape:cy="565.4259"
     inkscape:window-width="1920"
     inkscape:window-height="1011"
     inkscape:window-x="0"
     inkscape:window-y="32"
     inkscape:window-maximized="1"
     inkscape:current-layer="SVGRoot" />
  <defs
     id="defs11031" />
  <g
     id="layer1"
     transform="matrix(0.97656251,0,0,0.97656251,12.000002,11.999982)">
    <path
       style="fill:#5f3f7f;fill-opacity:1;fill-rule:evenodd;stroke:#000000;stroke-width:40.0906;stroke-linecap:round;stroke-linejoin:round;stroke-miterlimit:0;stroke-dasharray:none;stroke-opacity:1;paint-order:stroke markers fill"
       d="m 505.03652,20.169701 c 9.66835,0.190862 29.0072,0.572627 49.68354,2.121392 20.67634,1.548764 42.69228,4.264447 64.17398,8.14181 21.48171,3.877362 42.42403,8.915115 63.9864,15.633972 21.56237,6.718857 43.73998,15.118026 65.36605,25.210589 21.62607,10.092563 42.7105,21.883621 63.33484,36.025266 20.62434,14.14165 40.7919,30.63542 60.40693,50.89414 19.61504,20.25872 38.67613,44.28109 54.66713,69.09903 15.99099,24.81793 28.91263,50.43219 39.43003,76.35162 10.5174,25.91944 18.63006,52.1424 25.08992,84.40052 6.45987,32.25813 11.26726,70.55133 12.46906,108.15696 1.2018,37.60564 -1.2121,74.68081 -5.37842,105.95723 -4.16635,31.27642 -10.08966,56.83044 -17.77883,81.66019 -7.68916,24.82975 -17.14218,48.92944 -25.25763,67.22144 -8.11544,18.292 -14.90078,30.79003 -25.44328,46.85625 -10.5425,16.06623 -24.84676,35.70906 -40.56242,53.69057 -15.71566,17.98151 -32.83245,34.29212 -55.55848,51.22808 -22.72603,16.93596 -51.05648,34.49269 -80.83031,48.91106 -29.77382,14.41837 -60.99632,25.70033 -93.87717,34.16191 -32.88084,8.46158 -67.41897,14.10306 -103.3624,16.56167 -35.94343,2.4585 -73.28882,1.7332 -105.19351,-1.0559 -31.90469,-2.78919 -58.36891,-7.64212 -86.11345,-15.16957 -27.74455,-7.52745 -56.76819,-17.73016 -85.53102,-31.29587 -28.76283,-13.56571 -57.26529,-30.49434 -83.82082,-51.17165 -26.55553,-20.67732 -51.16434,-45.10402 -72.11862,-71.71768 -20.95429,-26.61366 -38.254485,-55.4137 -52.623935,-86.6869 -14.36945,-31.2732 -25.806936,-65.01821 -33.722288,-96.23186 -7.915352,-31.21365 -12.308967,-59.89713 -14.57619,-88.95617 -2.267223,-29.05903 -2.408036,-58.49335 -0.649714,-86.52084 1.758321,-28.02749 5.415776,-54.6497 12.439189,-84.6502 7.023414,-30.00051 17.412985,-63.38091 29.226323,-92.45459 11.813338,-29.07369 25.049572,-53.83912 40.280855,-76.80838 15.23129,-22.96927 32.45714,-44.14135 52.29399,-63.72304 19.83685,-19.5817 42.28296,-37.57198 68.69858,-54.12481 26.41563,-16.552818 56.79522,-31.665013 84.9365,-42.973293 28.14127,-11.30828 54.04942,-18.813876 77.65459,-24.498703 23.60517,-5.684827 44.91676,-9.551448 62.63249,-11.648087 17.71573,-2.096639 31.83797,-2.423834 38.89885,-2.587426 7.06088,-0.163592 7.06088,-0.199592 16.72924,-0.0087 z"
       id="path3787" />
    <path
       style="fill:#ebebeb;fill-opacity:1;fill-rule:evenodd;stroke:#000000;stroke-width:37.3919;stroke-linecap:round;stroke-linejoin:round;stroke-miterlimit:0;stroke-dasharray:none;stroke-opacity:1;paint-order:stroke markers fill"
       d="m 462.74749,728.0434 c 0.10808,-1.67062 0.32412,-5.0098 0.4079,-9.81453 0.0838,-4.80472 0.0352,-11.0741 0.0352,-18.17016 0,-7.09606 0.0486,-15.01927 0.2064,-22.4379 0.15781,-7.41862 0.42491,-14.33402 0.79094,-20.50191 0.36602,-6.16789 0.83097,-11.5881 1.7001,-17.7456 0.86913,-6.1575 2.14231,-13.05115 3.46977,-18.08234 1.32746,-5.03119 2.70952,-8.19972 4.17936,-11.23578 1.46985,-3.03607 3.02574,-5.93649 5.60661,-8.84974 2.58087,-2.91324 6.18735,-5.83824 10.7227,-8.08674 4.53536,-2.2485 10.00017,-3.82118 15.25373,-4.49315 5.25356,-0.67196 10.29623,-0.44338 15.28092,0.28747 4.98469,0.73085 9.91103,1.96369 14.20889,4.15344 4.29786,2.18976 7.96456,5.33422 10.96523,9.33562 3.00066,4.00141 5.33441,8.8586 7.22837,14.34389 1.89395,5.48528 3.34808,11.59784 4.41443,17.20434 1.06636,5.60651 1.74493,10.70619 2.28211,17.05456 0.53718,6.34836 0.93296,13.9448 1.12482,22.10566 0.19185,8.16087 0.17979,16.88557 0.1859,23.85969 0.006,6.97411 0.0304,12.19722 0.1045,17.4713 0.0741,5.27408 0.19791,10.59914 0.38429,15.2208 0.18638,4.62166 0.43523,8.5394 0.7855,12.36136 0.35027,3.82195 0.80187,7.54743 1.34658,10.86347 0.54471,3.31604 1.18175,6.2192 1.97332,9.30911 0.79157,3.08991 1.73747,6.36565 2.81591,9.36896 1.07844,3.00331 2.28807,5.73176 3.86409,8.64092 1.57601,2.90916 3.51706,5.99663 5.53506,8.72693 2.01799,2.7303 4.11277,5.10339 6.48931,7.33625 2.37655,2.23286 5.03703,4.32741 7.71968,6.10292 2.68265,1.77551 5.38774,3.23257 8.22265,4.5287 2.83492,1.29612 5.79615,2.42992 8.8527,3.38094 3.05656,0.95103 6.20281,1.71779 9.44218,2.23562 3.23938,0.51784 6.57209,0.78661 10.58142,0.78656 4.00933,-5e-5 8.6978,-0.26876 12.49602,-0.80564 3.79822,-0.53689 6.70606,-1.34161 9.67165,-2.324 2.96558,-0.98239 5.98847,-2.14232 9.58408,-4.03395 3.59562,-1.89164 7.7642,-4.51499 10.97706,-6.90856 3.21286,-2.39357 5.4695,-4.55686 7.63888,-7.10899 2.16938,-2.55213 4.25053,-5.49182 6.25192,-8.93367 2.0014,-3.44185 3.92202,-7.38413 5.34777,-10.90784 1.42575,-3.52371 2.35714,-6.6309 3.1258,-9.5892 0.76866,-2.95831 1.37439,-5.76701 1.86913,-8.98458 0.49473,-3.21758 0.87837,-6.84377 1.1789,-10.31121 0.30053,-3.46745 0.51774,-6.77326 0.72658,-10.90388 0.20884,-4.13061 0.4091,-9.08242 0.53355,-13.68489 0.12444,-4.60246 0.17301,-8.85418 0.22159,-13.67441 0.0486,-4.82022 0.0972,-10.20809 0.12146,-15.8251 0.0243,-5.61701 0.0243,-11.46244 0.027,-16.47754 0.003,-5.01509 0.008,-9.19976 -0.12719,-14.70357 -0.13514,-5.50381 -0.4107,-12.32549 -0.68442,-17.68645 -0.27371,-5.36095 -0.54572,-9.26263 -0.85716,-13.18864 -0.31145,-3.92601 -0.66221,-7.87512 -1.061,-11.71808 -0.39879,-3.84296 -0.8456,-7.57925 -1.47081,-11.73446 -0.62521,-4.1552 -1.4289,-8.7297 -2.32667,-13.21989 -0.89778,-4.4902 -1.88977,-8.8965 -3.02553,-13.43998 -1.13576,-4.54348 -2.41576,-9.22593 -4.10537,-14.28019 -1.68961,-5.05425 -3.78964,-10.4825 -6.13217,-15.88375 -2.34252,-5.40124 -4.9273,-10.77492 -7.61525,-15.61109 -2.68796,-4.83616 -5.47949,-9.13506 -8.741,-13.54555 -3.26152,-4.41049 -6.99347,-8.93309 -10.30357,-12.63752 -3.3101,-3.70443 -6.19905,-6.59128 -9.62154,-9.61825 -3.42248,-3.02697 -7.37912,-6.19447 -12.0309,-9.40137 -4.65177,-3.2069 -9.99817,-6.4528 -14.81879,-9.05891 -4.82062,-2.60611 -9.11481,-4.57197 -14.12368,-6.6841 -5.00888,-2.11213 -10.73165,-4.37015 -17.02427,-6.42199 -6.29263,-2.05184 -13.15376,-3.89698 -20.29064,-5.42026 -7.13688,-1.52327 -14.54918,-2.7245 -20.12391,-3.47891 -5.57473,-0.75441 -9.31435,-1.06214 -14.22343,-1.34603 -4.90907,-0.2839 -10.98934,-0.54407 -16.1702,-0.63162 -5.18086,-0.0875 -9.46264,-0.002 -15.13795,0.34709 -5.67531,0.34953 -12.74384,0.96348 -18.92977,1.71975 -6.18593,0.75627 -11.48762,1.65468 -14.13897,1.56232 -2.65135,-0.0924 -2.65135,-1.17566 -2.65135,-2.25895 0,0 0.10925,-7.07387 0.11267,-8.10611 0.003,-1.03224 0.0103,-3.0956 0.002,-5.54852 -0.009,-2.45293 -0.033,-5.29564 -0.0494,-7.74041 -0.0163,-2.44476 -0.0247,-4.49427 -0.0229,-6.52373 0.002,-2.02946 0.0139,-4.03962 0.0199,-5.04518 0.006,-1.00556 -0.10321,-13.18444 -0.10699,-15.53741 -0.004,-2.35298 -0.0113,-7.0593 -0.009,-11.81595 0.002,-4.75664 0.0143,-9.56328 0.0204,-14.81508 0.006,-5.2518 0.006,-10.94802 0.002,-15.79275 -0.004,-4.84474 -0.0119,-8.83763 -0.0402,-13.93928 -0.0283,-5.10164 -0.0769,-11.31137 -0.10115,-14.41655 -0.0243,-3.10517 -0.13354,-16.47528 -0.15783,-18.6243 -0.0243,-2.14902 -0.0729,-6.44821 -0.0972,-8.59794 -0.0243,-2.14974 -0.46137,-14.34757 -0.58278,-16.30135 -0.12141,-1.95378 -0.36418,-5.86048 -0.69007,-9.61806 -0.32589,-3.75759 -0.73516,-7.36773 -1.14922,-10.26302 -0.41406,-2.89528 -0.83272,-5.07503 -1.30311,-7.40381 -0.47038,-2.32878 -0.99236,-4.80591 -1.59262,-7.00978 -0.60026,-2.20386 -1.27928,-4.13523 -2.1802,-6.42604 -0.90091,-2.29081 -2.02578,-4.94607 -3.30481,-7.44467 -1.27903,-2.4986 -2.71262,-4.84141 -3.87388,-6.55706 -1.16125,-1.71564 -2.05123,-2.80514 -2.49696,-3.35078 -0.44572,-0.54565 -3.74549,-4.37549 -4.5796,-5.10855 -0.83411,-0.73306 -2.50235,-2.19922 -4.30843,-3.65367 -1.80608,-1.45445 -3.74912,-2.89622 -5.98519,-4.27538 -2.23606,-1.37917 -4.76732,-2.69665 -7.49103,-3.89496 -2.72371,-1.1983 -5.64003,-2.27765 -8.97665,-3.18287 -3.33662,-0.90521 -7.09246,-1.63584 -10.38934,-2.1155 -3.29689,-0.47966 -6.1366,-0.70833 -9.29241,-0.684 -3.15581,0.0243 -6.62483,0.3014 -9.83567,0.70739 -3.21084,0.406 -6.16272,0.94101 -9.27641,1.81863 -3.1137,0.87762 -6.38521,2.09646 -9.61178,3.58297 -3.22657,1.48651 -6.40284,3.23802 -9.02892,4.94395 -2.62608,1.70594 -4.6962,3.36239 -7.06412,5.60239 -2.36792,2.24 -5.03066,5.0609 -7.29334,7.95191 -2.26269,2.89101 -4.12429,5.85056 -5.67403,8.94652 -1.54974,3.09596 -2.78725,6.32762 -3.74141,9.15456 -0.95416,2.82694 -1.62397,5.24568 -2.29339,7.95605 -0.66942,2.71037 -1.33852,5.71283 -1.87512,9.19757 -0.53659,3.48474 -0.94086,7.45245 -1.23826,10.97307 -0.29741,3.52063 -0.48806,6.59582 -0.69929,9.75557 -0.21123,3.15975 -0.44313,6.4054 -0.58943,10.47043 -0.14629,4.06503 -0.20701,8.94904 -0.26774,13.82567 -0.0607,4.87663 -0.12145,9.74458 -0.15181,14.44258 -0.0304,4.69801 -0.0304,9.22595 -0.0425,13.46159 -0.0122,4.23564 -0.0365,8.17866 -0.0436,12.03705 -0.007,3.85838 0.003,7.6317 0.002,12.4839 -9.9e-4,4.85221 -0.0131,10.78262 -0.0434,17.58181 -0.0303,6.79919 -0.0789,14.46646 -0.1032,18.3002 -0.0243,3.83374 0.085,20.14588 0.0876,23.59856 0.003,3.45268 0.008,10.35697 0.0166,16.67985 0.009,6.32287 0.0208,12.06397 0.0146,17.46859 -0.006,5.40461 -0.0304,10.47251 -0.0426,13.00614 -0.0122,2.53364 0.0971,25.31207 0.0546,27.9657 -0.0425,2.65364 -0.1275,7.96068 -0.15785,15.35072 -0.0303,7.39005 -0.006,16.86291 5.6e-4,29.33373 0.007,12.47081 -0.005,27.93891 -0.0343,38.25114 -0.0299,10.31222 -0.0784,15.46782 -0.10271,18.04521 -0.0243,2.57738 0.19432,34.129 0.19426,40.86478 -6e-5,6.73578 -1.8e-4,20.20621 -0.002,31.65487 -0.002,11.44866 -0.005,20.87513 0.0182,27.98213 0.0228,7.107 0.0714,11.89494 0.16428,16.31683 0.0929,4.42189 0.23007,8.47744 0.41766,12.03735 0.18758,3.55991 0.42556,6.62442 0.95065,10.90882 0.52509,4.2844 1.33722,9.78849 2.26544,14.46941 0.92822,4.68092 1.97233,8.53803 3.2668,12.32162 1.29447,3.78358 2.83979,7.49529 4.4693,10.61618 1.62951,3.12089 3.34201,5.64989 5.19262,8.0563 1.85062,2.40642 3.83604,4.68634 6.52655,7.11983 2.69051,2.43348 6.08218,5.01713 9.17323,7.02978 3.09104,2.01266 5.87868,3.45272 9.60252,4.91069 3.72384,1.45796 8.38254,2.93342 12.76413,3.85905 4.38158,0.92562 8.48559,1.30132 12.58919,1.40339 4.1036,0.10207 8.20575,-0.0693 12.14296,-0.63054 3.9372,-0.56121 7.70817,-1.51204 11.29367,-2.70057 3.58551,-1.18853 6.98798,-2.61551 10.15826,-4.2594 3.17028,-1.64388 6.111,-3.50621 8.79371,-5.51115 2.6827,-2.00494 5.10924,-4.15386 7.25792,-6.47224 2.14869,-2.31837 4.02238,-4.80983 5.65963,-7.23095 1.63725,-2.42111 3.03899,-4.77296 4.35677,-7.45575 1.31779,-2.68279 2.55171,-5.69695 3.60825,-8.67392 1.05653,-2.97697 1.93497,-5.91412 2.69503,-9.19826 0.76006,-3.28414 1.40091,-6.91195 1.90594,-10.501 0.50503,-3.58904 0.87412,-7.13929 1.17152,-10.60136 0.2974,-3.46207 0.52333,-6.83967 0.63626,-8.52792 0.11293,-1.68824 0.0618,-1.6649 0.16984,-3.33551 z"
       id="path3639" />
  </g>
</svg>
