<?xml version="1.0" encoding="UTF-8" standalone="no"?>
<!-- Created with Inkscape (http://www.inkscape.org/) -->

<svg
   width="512"
   height="512"
   viewBox="0 0 512 512"
   version="1.1"
   id="SVGRoot"
   sodipodi:docname="youtube-icon.svg"
   inkscape:version="1.2.2 (b0a8486541, 2022-12-01)"
   xmlns:inkscape="http://www.inkscape.org/namespaces/inkscape"
   xmlns:sodipodi="http://sodipodi.sourceforge.net/DTD/sodipodi-0.dtd"
   xmlns="http://www.w3.org/2000/svg"
   xmlns:svg="http://www.w3.org/2000/svg">
  <sodipodi:namedview
     id="namedview1582"
     pagecolor="#ffffff"
     bordercolor="#000000"
     borderopacity="0.25"
     inkscape:showpageshadow="2"
     inkscape:pageopacity="0.0"
     inkscape:pagecheckerboard="0"
     inkscape:deskcolor="#d1d1d1"
     inkscape:document-units="px"
     showgrid="true"
     inkscape:zoom="0.73120423"
     inkscape:cx="-90.26206"
     inkscape:cy="177.78891"
     inkscape:window-width="1920"
     inkscape:window-height="1011"
     inkscape:window-x="0"
     inkscape:window-y="32"
     inkscape:window-maximized="1"
     inkscape:current-layer="layer1">
    <inkscape:grid
       type="xygrid"
       id="grid1705" />
  </sodipodi:namedview>
  <defs
     id="defs1577">
    <linearGradient
       id="SVGID_1_"
       gradientUnits="userSpaceOnUse"
       x1="200"
       y1="-1"
       x2="200"
       y2="399"
       gradientTransform="matrix(-1,0,0,1,400,1)">
      <stop
         offset="0"
         style="stop-color:#E52D27"
         id="stop1220" />
      <stop
         offset="1"
         style="stop-color:#BF171D"
         id="stop1222" />
    </linearGradient>
  </defs>
  <g
     inkscape:label="Layer 1"
     inkscape:groupmode="layer"
     id="layer1">
    <g
       id="Background"
       transform="scale(1.28)"
       style="fill:#ff0000;fill-opacity:1">
      <linearGradient
         id="linearGradient1756"
         gradientUnits="userSpaceOnUse"
         x1="200"
         y1="-1"
         x2="200"
         y2="399"
         gradientTransform="matrix(-1,0,0,1,400,1)">
        <stop
           offset="0"
           style="stop-color:#E52D27"
           id="stop1752" />
        <stop
           offset="1"
           style="stop-color:#BF171D"
           id="stop1754" />
      </linearGradient>
      <path
         fill="url(#SVGID_1_)"
         d="M 0,200 C 0,89.5 89.5,0 200,0 310.5,0 400,89.5 400,200 400,310.5 310.5,400 200,400 89.5,400 0,310.5 0,200"
         id="path1225"
         style="fill:#ff0000;fill-opacity:1" />
    </g>
    <g
       id="Logo"
       transform="matrix(1.28,0,0,1.28,1.216,1.152)">
      <g
         id="Lozenge">
        <g
           id="g1231">
          <path
             fill="#ffffff"
             d="m 331.2,145.1 c 0,0 -2.6,-18.6 -10.7,-26.8 -10.2,-10.8 -21.8,-10.8 -27,-11.4 -37.8,-2.7 -94.4,-2.7 -94.4,-2.7 H 199 c 0,0 -56.6,0 -94.4,2.7 -5.3,0.6 -16.8,0.7 -27,11.4 -8.1,8.2 -10.7,26.8 -10.7,26.8 0,0 -2.7,21.8 -2.7,43.7 v 20.5 c 0,21.8 2.7,43.7 2.7,43.7 0,0 2.6,18.6 10.7,26.8 10.3,10.8 23.7,10.4 29.7,11.5 21.6,2.1 91.7,2.7 91.7,2.7 0,0 56.7,-0.1 94.5,-2.8 5.3,-0.6 16.8,-0.7 27,-11.4 8.1,-8.2 10.7,-26.8 10.7,-26.8 0,0 2.7,-21.8 2.7,-43.7 v -20.5 c 0,-21.9 -2.7,-43.7 -2.7,-43.7 z M 171.1,234 v -75.8 l 72.9,38 z"
             id="path1229" />
        </g>
      </g>
    </g>
  </g>
</svg>
